<svg width="325" height="220" viewBox="0 0 325 220" fill="none" xmlns="http://www.w3.org/2000/svg">
<path d="M68.7618 150.518C68.6129 150.488 68.2342 150.347 68.0988 150.274C67.8816 150.156 67.6662 149.914 67.5373 149.642C67.4013 149.356 67.3797 149.289 67.3196 148.965C67.2575 148.632 67.2598 148.544 67.3398 148.266C67.5048 147.692 67.7849 147.266 68.4053 146.646C68.8669 146.184 68.9516 146.077 69.3128 145.495C69.5136 145.173 69.8018 144.619 69.8503 144.464C69.8637 144.423 69.9075 144.316 69.9482 144.231C70.1068 143.895 70.3469 143.094 70.3473 142.899C70.3477 142.831 70.2773 142.746 70.0155 142.494C69.5901 142.084 69.5315 141.96 69.5368 141.474C69.5407 141.1 69.5854 140.875 69.7913 140.196C70.071 139.274 70.0885 138.903 69.883 138.252C69.7981 137.983 69.2812 137.133 69.0699 136.915C68.8323 136.67 68.1607 136.174 67.8814 136.037C67.7849 135.99 67.5383 135.842 67.3332 135.709C66.8864 135.418 66.4997 135.203 65.8141 134.865C65.5321 134.726 65.1862 134.54 65.0453 134.451C64.9041 134.363 64.724 134.253 64.6448 134.208C64.3864 134.062 63.1134 133.133 62.6559 132.757C62.406 132.552 61.7084 131.832 61.4631 131.527C61.2228 131.228 61.1214 131.043 61.0231 130.729C60.9591 130.524 60.9535 130.457 60.9702 130.076C60.9904 129.615 60.9926 129.603 61.3769 128.467C61.6817 127.566 61.807 127.234 62.1776 126.349C62.4389 125.726 62.97 124.07 62.9362 123.984C62.926 123.954 62.8211 123.89 62.7042 123.836C62.445 123.716 62.4165 123.664 62.4819 123.437C62.5859 123.074 62.7092 122.528 62.7696 122.16C62.7964 121.997 62.8412 121.794 62.8694 121.708C62.9447 121.479 63.0558 120.914 63.1539 120.26C63.2014 119.943 63.2843 119.515 63.3378 119.31C63.3915 119.104 63.4552 118.845 63.4795 118.733C63.5038 118.622 63.5589 118.383 63.6021 118.204C63.6663 117.936 63.6835 117.762 63.6986 117.238C63.715 116.646 63.7302 116.462 63.8142 115.79C63.8623 115.403 63.9172 113.538 63.8952 113.017C63.8666 112.325 63.8316 112.128 63.7265 112.052C63.4032 111.817 62.6919 111.166 62.5625 110.987C62.5172 110.924 62.495 110.921 62.1883 110.94L61.8621 110.952L61.845 111.173C61.822 111.479 61.7498 115.13 61.7572 115.647C61.7634 116.083 61.7942 116.268 61.8709 116.33C61.9417 116.389 62.1361 116.406 62.2369 116.366C62.3126 116.336 62.3354 116.3 62.3669 116.163C62.4413 115.84 62.69 115.585 62.9309 115.585C63.0588 115.585 63.2405 115.69 63.3577 115.832C63.5048 116.011 63.526 116.215 63.4275 116.508C63.2555 117.019 62.9618 117.395 62.5847 117.587C62.3975 117.682 62.3669 117.688 62.0491 117.688C61.7329 117.688 61.699 117.684 61.4984 117.586C60.9793 117.337 60.6016 116.745 60.5129 116.041C60.4928 115.877 60.4905 115.23 60.5082 114.215C60.5228 113.349 60.5247 112.622 60.5113 112.597C60.4936 112.562 60.4743 112.579 60.4348 112.651C60.4062 112.704 60.3706 112.749 60.3562 112.749C60.3422 112.749 60.3124 112.791 60.2904 112.835C60.155 113.127 59.6556 113.675 59.1607 114.077C58.9885 114.217 58.9032 114.311 58.8768 114.388C58.8125 114.578 58.8238 115.153 58.9023 115.677C58.942 115.943 58.9906 116.279 59.0097 116.425C59.0293 116.571 59.0585 116.767 59.0753 116.861C59.0918 116.956 59.1191 117.495 59.1356 118.061C59.1521 118.626 59.1794 119.173 59.1975 119.276C59.2152 119.378 59.2304 119.708 59.2317 120.008C59.2323 120.308 59.2543 120.798 59.2798 121.098C59.3053 121.398 59.3417 121.866 59.36 122.139C59.3783 122.412 59.4063 122.692 59.4223 122.762C59.4388 122.832 59.4814 123.112 59.5178 123.384C59.5791 123.844 59.5824 123.979 59.5641 125.3C59.5507 126.29 59.5556 126.815 59.5811 127.032C59.6013 127.203 59.6311 127.533 59.6478 127.764C59.6642 127.996 59.7138 128.416 59.7578 128.699C59.8286 129.152 59.9257 129.898 60.0378 130.851C60.0859 131.262 60.0518 131.906 59.9298 132.857C59.8782 133.264 59.8792 133.811 59.9327 134.02C59.9736 134.178 59.9718 134.189 59.9028 134.26C59.8272 134.339 59.5672 134.444 59.1749 134.555C58.9223 134.626 58.9073 134.648 58.9957 134.814C59.0729 134.959 59.2582 135.561 59.294 135.783C59.4098 136.5 59.4483 137.061 59.4719 138.372C59.4859 139.128 59.4787 139.432 59.4396 139.773C59.3841 140.257 59.3139 142.313 59.3516 142.346C59.3892 142.382 59.7118 142.46 59.9041 142.483C60.3397 142.537 60.4257 142.71 60.2071 143.094C59.9491 143.547 59.8666 143.767 59.7076 144.427C59.5517 145.074 59.4896 145.457 59.4886 145.776C59.4875 146.065 59.4915 146.081 59.5741 146.156C59.6883 146.259 59.8547 146.32 60.6473 146.546C61.2864 146.729 61.8878 146.933 62.0954 147.036C62.6676 147.321 63.2425 147.742 63.5661 148.114C63.8884 148.485 64.0402 148.776 64.0598 149.062C64.0731 149.252 64.0659 149.285 63.9867 149.402C63.9386 149.473 63.8545 149.554 63.8 149.583C63.3448 149.82 63.0854 149.906 62.451 150.032C62.0892 150.103 61.975 150.119 61.5221 150.161C61.1899 150.19 61.1679 150.196 60.768 150.265C60.4924 150.312 59.3676 150.306 58.5905 150.253C58.335 150.235 57.7511 150.223 57.293 150.229L56.4599 150.233L56.1396 150.134C55.7108 150 55.5252 149.908 55.3471 149.743C55.0348 149.452 54.99 149.228 55.0194 148.104C55.0365 147.45 55.0297 147.268 54.9756 146.827C54.9133 146.329 54.8859 146.218 54.5817 145.238C54.5469 145.127 54.4838 144.903 54.441 144.74C54.3867 144.535 54.2756 144.272 54.0792 143.883C53.7217 143.177 53.6359 142.939 53.6949 142.818C53.7474 142.71 53.9718 142.598 54.232 142.55C54.4019 142.52 54.4262 142.502 54.4262 142.443C54.4262 142.27 54.2888 141.432 54.2258 141.22C54.1615 141.002 54.1565 140.916 54.1555 139.989C54.1545 139.036 54.1582 138.973 54.2402 138.553C54.3595 137.941 54.4136 137.753 54.5426 137.504C54.7181 137.165 54.6967 137.105 54.1917 136.519C53.9718 136.263 53.8622 136.098 53.6754 135.739C53.545 135.489 53.3782 135.137 53.3047 134.958C53.1519 134.584 53.1247 134.548 52.9602 134.493C52.7923 134.439 51.898 134.414 51.5732 134.457C51.3187 134.493 50.9075 134.65 50.7321 134.784C50.6973 134.807 50.6381 134.962 50.5815 135.172C50.4377 135.705 49.9593 136.769 49.6688 137.202C49.6057 137.296 49.4298 137.573 49.278 137.817C49.1262 138.061 48.9919 138.261 48.9794 138.261C48.9666 138.261 48.9148 138.32 48.864 138.393C48.7311 138.582 48.4762 138.911 48.3501 139.056C48.0381 139.415 47.1096 140.808 46.8247 141.345C46.6778 141.621 46.6984 141.666 47.0569 141.847C47.2241 141.931 47.3809 142.02 47.4056 142.044C47.4726 142.109 47.4286 142.224 47.2587 142.427C46.6342 143.172 46.0862 144.221 45.8357 145.15C45.7808 145.353 45.8301 145.447 46.1346 145.716C46.6914 146.207 46.7496 146.645 46.3417 147.274C46.2508 147.414 46.1656 147.533 46.1523 147.539C46.1389 147.543 46.1286 147.575 46.1286 147.605C46.1286 147.634 46.0743 147.722 46.0075 147.797C45.9408 147.872 45.819 148.032 45.7366 148.151C45.2824 148.813 44.5073 149.228 43.4072 149.4C43.2388 149.424 43.0028 149.468 42.8827 149.493C42.6256 149.547 41.8797 149.553 41.4823 149.505C40.8959 149.437 40.3424 149.196 39.9501 148.84C39.7786 148.684 39.5941 148.235 39.5932 147.97C39.5928 147.811 39.7315 147.232 39.8302 146.981C39.8734 146.871 40.0464 146.515 40.2146 146.191C40.3829 145.867 40.5621 145.496 40.6129 145.366C40.7338 145.057 40.958 144.339 41.1637 143.602L41.3285 143.011L41.3511 142.373C41.3706 141.8 41.3803 141.721 41.4435 141.605C41.5401 141.426 41.6395 141.359 41.9429 141.269C42.0867 141.227 42.2562 141.156 42.3199 141.114C42.4452 141.03 42.4641 140.976 42.6546 140.167C42.7988 139.554 42.9553 139.134 43.2591 138.541C43.4216 138.224 43.5743 137.917 43.5981 137.859C43.6893 137.637 44.1097 136.921 44.3648 136.554C44.511 136.343 44.7387 136.056 44.8708 135.916C45.176 135.593 45.1771 135.592 45.2947 135.239C45.4035 134.913 45.4881 134.437 45.4881 134.151V133.966L45.2398 133.913C44.7836 133.819 44.4777 133.709 43.9797 133.459C43.708 133.322 43.356 133.149 43.1974 133.075C43.0388 133 42.8673 132.896 42.8163 132.843C42.7268 132.75 42.7241 132.739 42.7441 132.531C42.755 132.413 42.8081 132.156 42.8611 131.961C42.914 131.766 43.0222 131.341 43.1012 131.015C43.3861 129.843 43.4506 129.603 43.6664 128.913C43.787 128.527 43.9357 128.107 43.997 127.978C44.2214 127.508 44.3388 127.176 44.6132 126.234C44.6756 126.019 44.74 125.774 44.756 125.689C44.8119 125.388 44.8928 124.628 44.9621 123.742C44.9969 123.302 45.0041 123.223 45.024 123.088C45.0355 123.011 45.0471 122.681 45.0501 122.356C45.0543 121.913 45.0434 121.724 45.0088 121.608C44.9212 121.318 44.9644 120.16 45.088 119.459C45.1501 119.107 45.5416 117.667 45.5998 117.575C45.6545 117.489 45.8585 116.618 45.9647 116.016C45.978 115.939 46.0134 115.778 46.0424 115.658C46.0716 115.538 46.1189 115.328 46.1479 115.191C46.1765 115.053 46.2131 114.885 46.2284 114.817C46.2637 114.659 46.3246 114.263 46.3386 114.101C46.4051 113.321 46.4258 113.007 46.4483 112.434C46.4629 112.066 46.4824 111.743 46.4915 111.718C46.5005 111.694 46.5172 111.531 46.5281 111.36C46.5384 111.19 46.5616 111.036 46.5787 111.019C46.5957 111.001 46.6097 110.925 46.6097 110.847C46.6095 110.58 46.9214 109.465 47.081 109.163C47.1034 109.122 47.1217 109.064 47.1217 109.037C47.1223 108.899 47.7104 107.676 47.9297 107.357C47.9945 107.263 48.1204 107.116 48.2094 107.031C48.3919 106.857 48.4096 106.779 48.2913 106.671C48.1446 106.537 48.2092 106.255 48.4098 106.154C48.4818 106.119 48.5556 106.107 48.6657 106.119L48.8206 106.137L48.7992 106.052C48.7876 106.011 48.7436 105.879 48.7015 105.769C48.5871 105.472 48.5715 105.152 48.6564 104.852C48.6941 104.717 48.7331 104.501 48.7426 104.369C48.7669 104.035 48.7798 103.992 48.8656 103.955C48.9543 103.913 49.3089 104.002 49.6495 104.151C49.762 104.199 49.8856 104.24 49.9243 104.24C50.0284 104.24 50.0891 104.105 50.0747 103.904C50.0679 103.812 50.0138 103.815 49.9356 103.908C49.8517 104.012 49.8108 104.006 49.6874 103.873C49.5506 103.726 49.4428 103.492 49.3809 103.205C49.2883 102.778 49.1692 102.382 49.0583 102.133C48.9345 101.855 48.8872 101.794 48.7549 101.741C48.6759 101.711 48.6416 101.711 48.5229 101.771C48.4462 101.806 48.374 101.836 48.3623 101.836C48.2975 101.836 48.1481 101.418 48.1475 101.235C48.1471 101.082 48.113 101.105 47.9692 101.355C47.8392 101.581 47.8163 101.602 47.7446 101.563C47.6269 101.499 47.262 100.58 47.124 99.9987C46.852 98.8559 46.8973 97.4027 47.2379 96.3385C47.4167 95.7801 47.7308 95.1033 47.9918 94.7147C48.1288 94.5111 48.6422 93.8745 48.8732 93.6225C49.0014 93.4827 49.9414 92.7591 50.2298 92.5785C50.5788 92.3593 51.0727 92.1331 51.5032 91.9939C51.9632 91.8451 52.2462 91.7865 52.7368 91.7381C52.9437 91.7201 53.1132 91.6967 53.1132 91.6789C53.1132 91.6315 52.7489 91.0693 52.5461 90.8059C51.7783 89.8087 50.9026 89.1103 49.7279 88.5575C47.4119 87.4681 44.6338 87.5977 42.4283 88.8981C42.2697 88.9911 42.063 89.1243 41.9688 89.1929C41.8746 89.2615 41.7868 89.3059 41.7736 89.2911C41.7602 89.2791 41.7298 89.2153 41.7061 89.1555C41.6825 89.0957 41.6378 89.0289 41.6074 89.0075C41.577 88.9895 41.4276 88.7867 41.2752 88.5645C40.1552 86.9295 38.6711 85.8041 36.8622 85.2179C36.0345 84.9497 35.3359 84.8437 34.3866 84.8431C33.069 84.8419 32.0479 85.0753 30.853 85.6515C30.5307 85.8073 30.2614 85.9287 30.2548 85.9221C30.2427 85.9101 30.2694 85.8327 30.3978 85.5111C30.4354 85.4171 30.4716 85.3145 30.4784 85.2837C30.5163 85.1155 31.1169 83.6697 31.2508 83.4245C31.2928 83.3475 31.3271 83.2739 31.3271 83.2609C31.3271 83.1597 32.2166 81.4155 32.6812 80.6055C35.1759 76.2561 38.6563 72.5535 42.7967 69.8439C46.6696 67.3095 51.0168 65.6883 55.4942 65.1087C56.6072 64.9647 58.1028 64.8581 59.0128 64.8581H59.3604L59.361 64.7723C59.3615 64.7249 59.3903 64.5537 59.4252 64.3909C59.612 63.5239 59.9477 62.8917 60.3358 62.6751C60.6127 62.5205 60.8225 62.5685 61.1076 62.8499C61.44 63.1781 61.7169 63.8689 61.8594 64.7239C61.9014 64.9773 61.8784 64.9625 62.292 64.9981C62.6857 65.0337 63.7498 65.1687 64.2463 65.2505C69.448 66.1041 74.3795 68.3159 78.5184 71.6507C79.5437 72.4769 80.9361 73.7775 81.8247 74.7389C84.2013 77.3103 86.1157 80.2013 87.576 83.4241C87.8633 84.0585 88.4239 85.4451 88.4572 85.6047C88.4646 85.6403 88.4364 85.6521 88.3389 85.6521C88.2636 85.6511 88.1966 85.6641 88.1764 85.6935C88.1484 85.7291 88.1116 85.7349 87.9682 85.7055C87.3248 85.5775 85.9716 85.5147 85.135 85.5739C83.5493 85.6857 82.1522 86.0359 80.8419 86.6493C79.5921 87.2345 78.534 88.0341 77.842 88.9159C77.7386 89.0475 77.6398 89.1641 77.6223 89.1749C77.6053 89.1869 77.4644 89.1335 77.3099 89.0637C76.3888 88.6371 75.3774 88.3515 74.274 88.2053C73.6975 88.1289 72.3261 88.1277 71.759 88.2033C71.2916 88.2655 70.856 88.3459 70.8228 88.3763C70.8101 88.3883 70.8948 88.4603 71.0115 88.5375C71.4276 88.8111 72.0087 89.4911 72.2872 90.0305C72.7582 90.9423 72.9512 91.3989 73.1828 92.1501C73.4241 92.9329 73.4833 93.1717 73.651 94.0329C73.7781 94.6863 73.942 95.2289 74.2691 96.0785C74.4168 96.4617 74.5628 96.8687 74.5935 96.9817C74.6245 97.0947 74.7237 97.3259 74.8144 97.4947C74.9536 97.7541 75.0018 97.8151 75.1264 97.8897C75.3325 98.0133 75.5713 98.0681 75.9142 98.0687C76.0761 98.0691 76.2174 98.0807 76.2283 98.0983C76.26 98.1457 76.2094 98.2095 75.8147 98.5981C75.5232 98.8843 75.4428 98.9813 75.4578 99.0281C75.4681 99.0637 75.5598 99.1441 75.6606 99.2129C75.8021 99.3093 75.8787 99.3947 75.9965 99.5873C76.2121 99.9403 76.3034 100.146 76.3604 100.409C76.4342 100.749 76.4098 100.973 76.2678 101.252C76.0784 101.624 75.5125 102.152 75.3545 102.103C75.321 102.091 75.2519 102.004 75.2015 101.906C75.1517 101.808 75.1015 101.721 75.0915 101.712C75.0812 101.7 75.039 101.653 74.9968 101.603C74.9555 101.55 74.9294 101.533 74.9397 101.562C74.9499 101.592 74.9754 101.699 74.9975 101.805C75.0707 102.167 74.9329 102.373 74.3799 102.731C74.2074 102.843 74.0661 102.946 74.0661 102.96C74.0661 102.972 74.1664 103.166 74.289 103.385C74.6365 104.007 74.8969 104.714 74.959 105.202C75.0326 105.782 75.0913 107.211 75.0913 108.427C75.0913 109.105 75.1052 109.789 75.1229 109.946C75.14 110.104 75.1704 110.394 75.191 110.591C75.2373 111.039 75.2702 111.28 75.3138 111.479C75.4453 112.077 75.6697 114.081 75.7009 114.936C75.7271 115.662 75.7406 115.827 75.8313 116.572C75.9749 117.752 76.028 118.135 76.1025 118.534C76.1944 119.028 76.2736 119.534 76.3898 120.372C76.4363 120.706 76.5095 121.197 76.5527 121.463C76.7385 122.605 76.7405 122.625 76.6984 122.809C76.6044 123.217 76.2985 123.465 75.5689 123.723L75.1458 123.873L74.987 124.202C74.7938 124.603 74.5795 125.106 74.4159 125.543C74.3487 125.723 74.2547 125.961 74.207 126.073C74.1594 126.184 74.0231 126.521 73.9042 126.82C73.7853 127.121 73.6277 127.513 73.5541 127.693C73.4802 127.873 73.3607 128.195 73.2885 128.409L73.1569 128.798L73.1441 129.465C73.1367 129.859 73.1468 130.259 73.1692 130.444C73.1898 130.617 73.2192 131.129 73.2334 131.584C73.2638 132.512 73.275 132.572 73.5134 133.034C73.8748 133.736 74.6186 134.619 75.4241 135.304C75.5277 135.392 75.767 135.628 75.9556 135.827C76.3221 136.215 76.4406 136.423 76.4416 136.682C76.4425 136.844 76.2306 137.35 75.8661 138.056C75.197 139.353 74.9234 140.141 74.835 141.025C74.8082 141.296 74.8757 141.982 74.9781 142.46C75.0662 142.873 75.4033 143.458 75.9918 144.218C76.1228 144.387 76.3437 144.831 76.4178 145.073C76.4744 145.257 76.4439 145.559 76.3485 145.763C76.2004 146.08 75.4636 146.744 74.2265 147.676C73.6349 148.121 73.2873 148.413 72.815 148.859C72.4703 149.185 72.1006 149.519 71.9935 149.602C71.4297 150.039 70.619 150.365 69.7833 150.491C69.5634 150.527 68.8996 150.533 68.7642 150.503L68.7618 150.518ZM68.3786 129.644C68.3236 129.507 68.2619 129.167 68.1864 128.593C68.1412 128.25 68.0822 127.879 68.055 127.767C68.0032 127.556 67.8919 127.3 67.8518 127.3C67.839 127.3 67.7944 127.36 67.7524 127.432C67.7103 127.505 67.6088 127.649 67.5264 127.751C67.2585 128.085 66.9516 128.583 66.9516 128.682C66.9516 128.736 67.2125 128.935 67.5233 129.123C67.635 129.191 67.8001 129.303 67.8907 129.371C68.126 129.55 68.3409 129.695 68.3728 129.696C68.388 129.697 68.3901 129.674 68.3786 129.644ZM58.037 109.194C58.1781 109.013 58.443 108.578 58.653 108.182C58.745 108.008 58.8433 107.877 58.9556 107.776C59.1117 107.638 59.4306 107.458 59.5248 107.456C59.548 107.456 59.5939 107.438 59.627 107.415C59.6842 107.373 59.6811 107.361 59.5548 107.224C59.2936 106.935 59.151 106.215 59.2738 105.804C59.3368 105.594 59.5464 105.286 59.7451 105.113C59.9333 104.948 60.3535 104.736 60.5837 104.69L60.7581 104.654L60.7818 103.807C60.7952 103.341 60.811 102.728 60.819 102.445C60.8264 102.162 60.9126 99.1149 61.0109 95.6733C61.1093 92.2317 61.1775 89.4041 61.1629 89.3897C61.1483 89.3777 60.949 89.3305 60.7203 89.2957C60.3908 89.2425 60.1709 89.2271 59.6634 89.2265C58.9536 89.2255 58.5835 89.2679 57.9494 89.4273C56.7526 89.7275 55.6678 90.3439 54.8252 91.2031C54.5724 91.4607 54.2474 91.8495 54.2697 91.8671C54.2758 91.8711 54.3748 91.8907 54.4891 91.9145C55.0318 92.0157 56.3482 92.4801 56.8923 92.7619C57.5236 93.0889 58.1053 93.4961 58.5502 93.9213C58.7131 94.0771 58.8466 94.2157 58.8466 94.2281C58.8466 94.2461 58.8149 94.2517 58.7771 94.2517C58.7392 94.2517 58.615 94.2637 58.5016 94.2871L58.2957 94.3227L58.5983 94.6111C59.3845 95.3597 59.7809 96.3629 59.735 97.4897C59.7161 97.9481 59.6704 98.1381 59.4711 98.5801C59.3802 98.7813 59.3084 98.9869 59.1043 99.6269C59.0441 99.8165 58.9996 100.131 59.0044 100.338C59.0118 100.668 59.092 100.833 59.3775 101.107C59.6505 101.368 59.7249 101.482 59.7015 101.601C59.6753 101.734 59.3966 102.45 59.3086 102.609C59.2329 102.747 59.2306 102.762 59.2769 102.827C59.3043 102.868 59.3269 102.941 59.3269 102.997C59.3269 103.077 59.3006 103.118 59.1977 103.198C59.0342 103.326 59.0112 103.409 59.1047 103.532C59.1883 103.642 59.1944 103.797 59.1181 103.879C59.0887 103.909 58.9836 103.967 58.8836 104.006C58.535 104.142 58.4819 104.206 58.4309 104.556C58.3871 104.854 58.29 105.047 58.0701 105.27C57.7537 105.59 57.7188 105.598 56.6282 105.61C56.075 105.614 55.6525 105.634 55.5707 105.652C55.3605 105.705 55.1671 105.801 55.1315 105.865C55.1011 105.918 55.1212 105.924 55.555 105.937C55.9446 105.949 56.0353 105.96 56.1806 106.022C56.4126 106.122 56.4603 106.214 56.414 106.474C56.3628 106.76 56.3616 106.757 56.5549 106.833C56.7621 106.915 56.9766 107.09 57.1523 107.322C57.3401 107.569 57.5544 108.021 57.6126 108.292C57.805 109.187 57.8479 109.357 57.8823 109.357C57.8969 109.357 57.9666 109.284 58.037 109.194ZM64.3401 106.196C64.351 106.093 64.365 105.988 64.3718 105.962C64.3792 105.939 64.415 105.65 64.4514 105.324C64.581 104.169 64.6384 103.914 64.8667 103.477C65.0029 103.217 65.0467 103.154 65.324 102.823C65.5782 102.52 65.5797 102.503 65.3727 102.223C65.0368 101.768 64.8986 101.471 64.9753 101.37C65.007 101.329 65.5581 101.156 65.8734 101.088C65.9625 101.07 65.9643 101.065 65.9427 100.922C65.9116 100.719 65.7781 100.403 65.6366 100.199C65.4083 99.8719 65.3147 99.8309 65.0438 99.9411C64.9021 100 64.7725 100.023 64.5429 100.035C64.2659 100.047 64.2171 100.047 64.0785 99.9819C63.9902 99.9405 63.8246 99.8119 63.6934 99.6817C63.4929 99.4827 63.4303 99.3903 63.209 98.9627C62.9064 98.3781 62.8926 98.3389 62.7061 97.5269C62.567 96.9217 62.5613 96.8767 62.5755 96.5145C62.5919 96.0823 62.6512 95.7875 62.7719 95.5333C62.8743 95.3177 62.8992 95.0949 62.8441 94.8919C62.8112 94.7703 62.7799 94.7265 62.6952 94.6805C62.5685 94.6119 62.3401 94.5787 62.2776 94.6201C62.241 94.6437 62.2149 95.4659 62.1283 99.2863C62.0705 101.837 62.0153 104.185 62.0059 104.505L61.9888 105.087L62.2147 105.122C62.3537 105.146 62.5343 105.206 62.6855 105.28C62.8947 105.385 62.963 105.44 63.152 105.664C63.4254 105.987 63.9758 106.477 64.148 106.551L64.2764 106.604L64.2988 106.493C64.3109 106.432 64.3305 106.299 64.3401 106.196ZM62.572 90.9939C62.6275 90.8565 62.7487 90.5977 62.8414 90.4177C62.9984 90.1139 63.0062 90.0873 62.9546 90.0481C62.8793 89.9889 62.3714 89.7515 62.357 89.7669C62.3502 89.7709 62.3362 90.2205 62.3253 90.7601L62.3052 91.7413L62.3883 91.4921C62.4339 91.3547 62.5166 91.1313 62.572 90.9939ZM101.862 216.81C88.6528 214.844 77.1784 210.992 64.6762 204.104C45.0176 193.15 31.6702 179.869 21.1509 159.991C15.9325 150.199 10.7232 131.889 10.066 121.027C8.69348 98.5305 13.0396 80.1745 24.1551 61.1005C37.4918 38.4325 56.0257 23.1985 81.2029 14.2206C127.766 -2.24538 180.735 15.203 208.057 55.9485C209.411 58.4231 212.626 64.0233 215.055 68.5735C218.494 75.5327 218.963 76.0375 217.495 72.0173C200.476 26.4493 154.566 -2.67258 104.621 0.195428C93.9441 0.859488 77.6583 4.60902 67.5299 8.91022C44.2759 18.9492 26.621 34.4201 14.3472 55.6981C3.53289 74.6907 -1.47005 97.0081 0.379986 118.902C1.25524 129.389 7.0575 148.644 11.9588 157.89C27.4894 186.826 52.5694 206.572 84.2528 214.766C90.5929 216.53 104.789 218.546 108.613 218.306C109.86 218.128 106.924 217.498 101.862 216.81Z" fill="white"/>
<path d="M103.835 116L99.5898 97.04H105.316L107.867 112.768H107.703L111.454 97.04H115.519L111.257 116H103.835ZM117.099 116L112.82 97.04H116.984L120.686 112.736H120.521L122.957 97.04H128.684L124.454 116H117.099ZM131.164 116V90.88H136.71V116H131.164ZM143.983 116V105.952C143.983 103.851 143.709 102.427 143.161 101.68C142.623 100.933 141.806 100.56 140.709 100.56C139.557 100.56 138.586 101.019 137.796 101.936C137.006 102.843 136.611 104.021 136.611 105.472L133.929 104.256C133.929 102.581 134.741 100.933 136.364 99.312C137.999 97.68 140.144 96.864 142.799 96.864C145.311 96.864 147.055 97.664 148.032 99.264C149.008 100.864 149.496 103.008 149.496 105.696V116H143.983ZM159.97 116.208C159.202 116.208 158.445 116.165 157.699 116.08C156.964 115.995 156.273 115.835 155.626 115.6C154.979 115.355 154.408 115.013 153.914 114.576C153.421 114.139 153.031 113.573 152.746 112.88C152.472 112.187 152.335 111.339 152.335 110.336C152.335 109.365 152.472 108.549 152.746 107.888C153.031 107.216 153.415 106.667 153.898 106.24C154.381 105.813 154.94 105.483 155.576 105.248C156.213 105.013 156.893 104.853 157.617 104.768C158.341 104.672 159.076 104.624 159.822 104.624H165.976V103.888C165.976 103.024 165.801 102.341 165.45 101.84C165.11 101.339 164.638 100.987 164.035 100.784C163.442 100.571 162.773 100.464 162.027 100.464C161.347 100.464 160.727 100.565 160.168 100.768C159.608 100.971 159.136 101.301 158.752 101.76C158.379 102.219 158.116 102.832 157.963 103.6L152.549 102.128C152.746 101.179 153.108 100.373 153.635 99.712C154.172 99.04 154.852 98.496 155.675 98.08C156.509 97.6534 157.458 97.344 158.522 97.152C159.597 96.9494 160.76 96.848 162.011 96.848C163.974 96.848 165.669 97.0774 167.095 97.536C168.522 97.9946 169.619 98.7574 170.387 99.824C171.155 100.891 171.538 102.341 171.538 104.176V116H166.931L166.454 113.824C166.322 114.112 166.075 114.4 165.713 114.688C165.351 114.965 164.885 115.221 164.314 115.456C163.755 115.68 163.108 115.861 162.373 116C161.649 116.139 160.848 116.208 159.97 116.208ZM161.221 112.832C161.758 112.832 162.29 112.784 162.817 112.688C163.355 112.592 163.843 112.453 164.281 112.272C164.731 112.091 165.104 111.877 165.4 111.632C165.697 111.376 165.889 111.099 165.976 110.8L166.108 107.6H161.122C160.683 107.6 160.272 107.632 159.888 107.696C159.504 107.749 159.164 107.867 158.868 108.048C158.582 108.229 158.357 108.491 158.193 108.832C158.028 109.173 157.946 109.621 157.946 110.176C157.946 110.741 158.034 111.2 158.209 111.552C158.396 111.893 158.643 112.16 158.95 112.352C159.268 112.533 159.619 112.661 160.003 112.736C160.398 112.8 160.804 112.832 161.221 112.832ZM184.003 116.24C182.27 116.24 180.8 115.888 179.593 115.184C178.397 114.469 177.799 113.184 177.799 111.328V100.736H173.34V97.04H177.799V92.704H183.345V97.04H189.335V100.736H183.345V110.144C183.345 111.179 183.564 111.856 184.003 112.176C184.453 112.485 185.084 112.64 185.895 112.64C186.707 112.64 187.503 112.507 188.282 112.24V115.792C186.921 116.091 185.495 116.24 184.003 116.24ZM190.483 102.288V94.4H194.465V102.288H190.483ZM205.828 116.16C203.26 116.16 201.098 115.781 199.343 115.024C197.588 114.267 196.453 112.965 195.937 111.12L200.775 109.392C201.027 110.48 201.598 111.296 202.486 111.84C203.375 112.384 204.516 112.656 205.91 112.656C207.062 112.656 207.955 112.485 208.592 112.144C209.228 111.792 209.547 111.307 209.547 110.688C209.547 109.845 208.975 109.307 207.835 109.072C206.694 108.837 205.234 108.581 203.457 108.304C201.23 107.973 199.442 107.381 198.093 106.528C196.754 105.664 196.085 104.272 196.085 102.352C196.085 100.475 196.913 99.0934 198.57 98.208C200.226 97.3226 202.398 96.88 205.086 96.88C207.708 96.88 209.853 97.2534 211.521 98C213.188 98.736 214.257 100.005 214.73 101.808L209.876 103.504C209.623 102.533 209.07 101.765 208.214 101.2C207.358 100.635 206.293 100.352 205.02 100.352C203.825 100.352 202.941 100.528 202.371 100.88C201.812 101.232 201.532 101.717 201.532 102.336C201.532 103.147 202.075 103.675 203.161 103.92C204.247 104.155 205.64 104.4 207.342 104.656C209.524 104.965 211.345 105.504 212.805 106.272C214.274 107.029 215.01 108.368 215.01 110.288C215.01 112.389 214.214 113.893 212.624 114.8C211.032 115.707 208.767 116.16 205.828 116.16ZM235.812 116.24C234.08 116.24 232.609 115.888 231.402 115.184C230.207 114.469 229.608 113.184 229.608 111.328V100.736H225.149V97.04H229.608V92.704H235.154V97.04H241.144V100.736H235.154V110.144C235.154 111.179 235.374 111.856 235.812 112.176C236.263 112.485 236.894 112.64 237.705 112.64C238.517 112.64 239.313 112.507 240.091 112.24V115.792C238.731 116.091 237.306 116.24 235.812 116.24ZM243.655 116V90.88H249.201V116H243.655ZM256.474 116V105.952C256.474 103.851 256.199 102.427 255.652 101.68C255.113 100.933 254.296 100.56 253.2 100.56C252.048 100.56 251.077 101.019 250.287 101.936C249.497 102.843 249.102 104.021 249.102 105.472L246.42 104.256C246.42 102.581 247.23 100.933 248.855 99.312C250.489 97.68 252.634 96.864 255.29 96.864C257.801 96.864 259.545 97.664 260.522 99.264C261.497 100.864 261.987 103.008 261.987 105.696V116H256.474ZM274.715 116.192C271.029 116.192 268.446 115.328 266.965 113.6C265.494 111.861 264.76 109.499 264.76 106.512C264.76 103.451 265.5 101.077 266.981 99.392C268.462 97.696 271.007 96.848 274.617 96.848C278.313 96.848 280.87 97.7066 282.285 99.424C283.711 101.141 284.424 103.499 284.424 106.496C284.424 107.093 284.385 107.627 284.309 108.096H269.598V104.848H279.142L278.945 105.328C278.945 103.504 278.56 102.213 277.793 101.456C277.036 100.699 275.976 100.32 274.617 100.32C273.278 100.32 272.192 100.731 271.359 101.552C270.523 102.373 270.108 104.027 270.108 106.512C270.108 108.944 270.519 110.587 271.342 111.44C272.175 112.293 273.3 112.72 274.715 112.72V116.192ZM274.715 112.72C275.538 112.72 276.217 112.613 276.756 112.4C277.293 112.187 277.721 111.829 278.04 111.328C278.369 110.827 278.648 110.235 278.879 109.552L283.832 110.912C283.589 112.16 283.063 113.168 282.252 113.936C281.45 114.704 280.479 115.275 279.34 115.648C278.208 116.011 276.668 116.192 274.715 116.192V112.72ZM103.835 150L99.5898 131.04H105.316L107.867 146.768H107.703L111.454 131.04H115.519L111.257 150H103.835ZM117.099 150L112.82 131.04H116.984L120.686 146.736H120.521L122.957 131.04H128.684L124.454 150H117.099ZM140.112 150.192C136.426 150.192 133.843 149.328 132.362 147.6C130.892 145.861 130.157 143.499 130.157 140.512C130.157 137.451 130.897 135.077 132.378 133.392C133.859 131.696 136.404 130.848 140.013 130.848C143.711 130.848 146.267 131.707 147.682 133.424C149.108 135.141 149.821 137.499 149.821 140.496C149.821 141.093 149.783 141.627 149.706 142.096H134.994V138.848H144.539L144.341 139.328C144.341 137.504 143.957 136.213 143.189 135.456C142.432 134.699 141.374 134.32 140.013 134.32C138.675 134.32 137.589 134.731 136.755 135.552C135.922 136.373 135.505 138.027 135.505 140.512C135.505 142.944 135.916 144.587 136.739 145.44C137.573 146.293 138.697 146.72 140.112 146.72V150.192ZM140.112 146.72C140.935 146.72 141.615 146.613 142.153 146.4C142.69 146.187 143.118 145.829 143.436 145.328C143.765 144.827 144.045 144.235 144.275 143.552L149.229 144.912C148.987 146.16 148.461 147.168 147.649 147.936C146.848 148.704 145.877 149.275 144.736 149.648C143.606 150.011 142.065 150.192 140.112 150.192V146.72ZM159.745 150.208C158.977 150.208 158.22 150.165 157.474 150.08C156.739 149.995 156.048 149.835 155.401 149.6C154.754 149.355 154.183 149.013 153.69 148.576C153.196 148.139 152.806 147.573 152.521 146.88C152.247 146.187 152.11 145.339 152.11 144.336C152.11 143.365 152.247 142.549 152.521 141.888C152.806 141.216 153.19 140.667 153.673 140.24C154.156 139.813 154.715 139.483 155.351 139.248C155.988 139.013 156.668 138.853 157.392 138.768C158.116 138.672 158.851 138.624 159.597 138.624H165.752V137.888C165.752 137.024 165.576 136.341 165.225 135.84C164.885 135.339 164.413 134.987 163.81 134.784C163.217 134.571 162.548 134.464 161.802 134.464C161.122 134.464 160.502 134.565 159.943 134.768C159.383 134.971 158.911 135.301 158.528 135.76C158.154 136.219 157.891 136.832 157.738 137.6L152.324 136.128C152.521 135.179 152.883 134.373 153.41 133.712C153.947 133.04 154.628 132.496 155.45 132.08C156.284 131.653 157.233 131.344 158.297 131.152C159.372 130.949 160.535 130.848 161.786 130.848C163.749 130.848 165.444 131.077 166.871 131.536C168.297 131.995 169.394 132.757 170.162 133.824C170.93 134.891 171.314 136.341 171.314 138.176V150H166.706L166.229 147.824C166.097 148.112 165.85 148.4 165.488 148.688C165.126 148.965 164.66 149.221 164.09 149.456C163.53 149.68 162.883 149.861 162.148 150C161.424 150.139 160.623 150.208 159.745 150.208ZM160.996 146.832C161.533 146.832 162.066 146.784 162.592 146.688C163.13 146.592 163.618 146.453 164.057 146.272C164.506 146.091 164.879 145.877 165.176 145.632C165.472 145.376 165.664 145.099 165.752 144.8L165.883 141.6H160.897C160.458 141.6 160.047 141.632 159.663 141.696C159.279 141.749 158.939 141.867 158.643 142.048C158.357 142.229 158.133 142.491 157.968 142.832C157.804 143.173 157.721 143.621 157.721 144.176C157.721 144.741 157.809 145.2 157.985 145.552C158.171 145.893 158.418 146.16 158.725 146.352C159.043 146.533 159.394 146.661 159.778 146.736C160.173 146.8 160.579 146.832 160.996 146.832ZM183.778 150.24C182.045 150.24 180.574 149.888 179.368 149.184C178.172 148.469 177.574 147.184 177.574 145.328V134.736H173.115V131.04H177.574V126.704H183.12V131.04H189.11V134.736H183.12V144.144C183.12 145.179 183.339 145.856 183.778 146.176C184.228 146.485 184.859 146.64 185.67 146.64C186.482 146.64 187.278 146.507 188.056 146.24V149.792C186.696 150.091 185.27 150.24 183.778 150.24ZM191.62 150V124.88H197.166V150H191.62ZM204.439 150V139.952C204.439 137.851 204.165 136.427 203.616 135.68C203.078 134.933 202.261 134.56 201.164 134.56C200.012 134.56 199.041 135.019 198.252 135.936C197.462 136.843 197.067 138.021 197.067 139.472L194.385 138.256C194.385 136.581 195.196 134.933 196.82 133.312C198.454 131.68 200.599 130.864 203.254 130.864C205.766 130.864 207.51 131.664 208.487 133.264C209.462 134.864 209.952 137.008 209.952 139.696V150H204.439ZM222.681 150.192C218.994 150.192 216.411 149.328 214.93 147.6C213.459 145.861 212.725 143.499 212.725 140.512C212.725 137.451 213.465 135.077 214.946 133.392C216.427 131.696 218.972 130.848 222.582 130.848C226.278 130.848 228.835 131.707 230.25 133.424C231.676 135.141 232.389 137.499 232.389 140.496C232.389 141.093 232.35 141.627 232.274 142.096H217.563V138.848H227.107L226.91 139.328C226.91 137.504 226.525 136.213 225.758 135.456C225.001 134.699 223.941 134.32 222.582 134.32C221.243 134.32 220.157 134.731 219.324 135.552C218.488 136.373 218.073 138.027 218.073 140.512C218.073 142.944 218.484 144.587 219.307 145.44C220.14 146.293 221.265 146.72 222.681 146.72V150.192ZM222.681 146.72C223.503 146.72 224.182 146.613 224.721 146.4C225.258 146.187 225.686 145.829 226.005 145.328C226.334 144.827 226.613 144.235 226.844 143.552L231.797 144.912C231.554 146.16 231.028 147.168 230.217 147.936C229.415 148.704 228.444 149.275 227.305 149.648C226.173 150.011 224.633 150.192 222.681 150.192V146.72ZM247.578 140.384C247.578 137.995 247.298 136.432 246.739 135.696C246.179 134.949 245.402 134.576 244.402 134.576C243.24 134.576 242.318 134.971 241.637 135.76C240.959 136.539 240.617 137.435 240.617 138.448L238.494 137.216C238.494 135.424 239.231 133.92 240.699 132.704C242.17 131.477 244.096 130.864 246.475 130.864C249.055 130.864 250.803 131.637 251.725 133.184C252.646 134.72 253.107 137.12 253.107 140.384H247.578ZM235.105 150V131.04H239.383L240.634 134.32V150H235.105ZM265.231 150V124.88H270.776V150H265.231ZM274.615 150V131.024H280.16V150H274.615ZM274.615 125.328H280.16V129.088H274.615V125.328ZM283.766 150V124.88H289.295V139.712L288.16 138.976L295.631 131.024H302.065L295.433 138.56L295.779 137.696L302.279 150H296.404L291.846 140.736L293.014 140.576L288.983 144.624L289.295 142.16V150H283.766ZM313.411 150.192C309.725 150.192 307.141 149.328 305.66 147.6C304.19 145.861 303.455 143.499 303.455 140.512C303.455 137.451 304.196 135.077 305.677 133.392C307.158 131.696 309.702 130.848 313.312 130.848C317.009 130.848 319.565 131.707 320.981 133.424C322.406 135.141 323.12 137.499 323.12 140.496C323.12 141.093 323.081 141.627 323.005 142.096H308.293V138.848H317.838L317.64 139.328C317.64 137.504 317.256 136.213 316.488 135.456C315.731 134.699 314.672 134.32 313.312 134.32C311.973 134.32 310.887 134.731 310.054 135.552C309.221 136.373 308.803 138.027 308.803 140.512C308.803 142.944 309.215 144.587 310.038 145.44C310.871 146.293 311.996 146.72 313.411 146.72V150.192ZM313.411 146.72C314.234 146.72 314.915 146.613 315.452 146.4C315.988 146.187 316.416 145.829 316.735 145.328C317.064 144.827 317.344 144.235 317.574 143.552L322.528 144.912C322.287 146.16 321.76 147.168 320.948 147.936C320.148 148.704 319.177 149.275 318.035 149.648C316.906 150.011 315.363 150.192 313.411 150.192V146.72Z" fill="white"/>
<path d="M108.213 184.192C106.951 184.192 105.909 183.92 105.086 183.376C104.263 182.821 103.852 181.765 103.852 180.208V166.48H99.2114V165.056H103.852V160.784H105.876V165.056H112.59V166.48H105.876V179.68C105.876 180.939 106.134 181.771 106.649 182.176C107.176 182.581 107.916 182.784 108.871 182.784C109.672 182.784 110.445 182.672 111.191 182.448V183.824C110.248 184.069 109.255 184.192 108.213 184.192ZM122.342 184.144C119.819 184.144 117.888 183.387 116.55 181.872C115.211 180.347 114.542 177.883 114.542 174.48C114.542 171.088 115.211 168.635 116.55 167.12C117.888 165.605 119.819 164.848 122.342 164.848C124.865 164.848 126.791 165.605 128.118 167.12C129.456 168.635 130.126 171.088 130.126 174.48C130.126 177.883 129.456 180.347 128.118 181.872C126.791 183.387 124.865 184.144 122.342 184.144ZM122.342 182.736C124.01 182.736 125.381 182.144 126.456 180.96C127.542 179.765 128.085 177.611 128.085 174.496C128.085 171.381 127.542 169.232 126.456 168.048C125.381 166.853 124.01 166.256 122.342 166.256C120.674 166.256 119.298 166.853 118.212 168.048C117.126 169.232 116.582 171.381 116.582 174.496C116.582 177.611 117.126 179.765 118.212 180.96C119.298 182.144 120.674 182.736 122.342 182.736ZM146.006 184L145.891 180.704V158.88H147.898V184H146.006ZM139.72 184.128C137.559 184.128 135.902 183.365 134.75 181.84C133.598 180.304 133.023 177.856 133.023 174.496C133.023 171.115 133.598 168.667 134.75 167.152C135.902 165.627 137.559 164.864 139.72 164.864C141.728 164.864 143.401 165.381 144.739 166.416C146.077 167.451 146.747 168.485 146.747 169.52L145.891 170.864C145.891 169.733 145.353 168.688 144.278 167.728C143.203 166.768 141.892 166.288 140.345 166.288C138.754 166.288 137.476 166.88 136.511 168.064C135.557 169.248 135.08 171.392 135.08 174.496C135.08 177.6 135.557 179.744 136.511 180.928C137.476 182.112 138.754 182.704 140.345 182.704C141.892 182.704 143.203 182.224 144.278 181.264C145.353 180.304 145.891 179.259 145.891 178.128L146.747 179.472C146.747 180.507 146.077 181.541 144.739 182.576C143.401 183.611 141.728 184.128 139.72 184.128ZM157.407 184.16C156.737 184.16 156.095 184.112 155.481 184.016C154.867 183.92 154.296 183.755 153.77 183.52C153.243 183.285 152.783 182.96 152.388 182.544C152.004 182.117 151.702 181.579 151.483 180.928C151.263 180.267 151.153 179.467 151.153 178.528C151.153 177.611 151.258 176.832 151.466 176.192C151.685 175.552 151.987 175.024 152.371 174.608C152.766 174.192 153.221 173.867 153.737 173.632C154.252 173.397 154.812 173.237 155.415 173.152C156.03 173.056 156.661 173.008 157.308 173.008H163.808V171.728C163.808 170.437 163.588 169.392 163.15 168.592C162.722 167.792 162.113 167.205 161.323 166.832C160.544 166.459 159.623 166.272 158.558 166.272C157.582 166.272 156.726 166.448 155.991 166.8C155.267 167.141 154.675 167.685 154.214 168.432C153.753 169.168 153.452 170.133 153.309 171.328L151.318 170.864C151.45 169.787 151.707 168.869 152.091 168.112C152.486 167.355 152.991 166.736 153.605 166.256C154.231 165.776 154.96 165.429 155.794 165.216C156.628 164.992 157.544 164.88 158.542 164.88C160.056 164.88 161.356 165.109 162.442 165.568C163.539 166.016 164.378 166.747 164.96 167.76C165.552 168.773 165.848 170.123 165.848 171.808V184H164.121L163.956 181.456C163.857 181.723 163.649 182.011 163.331 182.32C163.023 182.629 162.601 182.928 162.064 183.216C161.526 183.493 160.868 183.723 160.089 183.904C159.321 184.075 158.427 184.16 157.407 184.16ZM157.834 182.832C158.679 182.832 159.442 182.752 160.122 182.592C160.813 182.432 161.411 182.219 161.915 181.952C162.42 181.675 162.831 181.371 163.15 181.04C163.468 180.699 163.687 180.357 163.808 180.016L163.841 174.208H157.752C157.16 174.208 156.589 174.267 156.041 174.384C155.503 174.491 155.021 174.699 154.593 175.008C154.165 175.317 153.825 175.755 153.572 176.32C153.331 176.875 153.21 177.595 153.21 178.48C153.21 179.365 153.331 180.096 153.572 180.672C153.825 181.237 154.165 181.68 154.593 182C155.031 182.309 155.525 182.528 156.074 182.656C156.633 182.773 157.22 182.832 157.834 182.832ZM173.837 184L168.011 165.056H170.151L175.614 183.12H175.12L180.534 165.056H182.657L176.914 184H173.837ZM168.439 191.36V189.952C170.063 189.941 171.385 189.531 172.405 188.72C173.436 187.92 174.308 186.336 175.022 183.968L176.914 184C176.047 186.912 174.923 188.864 173.541 189.856C172.169 190.859 170.469 191.36 168.439 191.36ZM189.458 179.952C189.458 178.363 189.721 177.019 190.248 175.92C190.774 174.811 191.476 173.829 192.354 172.976C192.957 172.336 193.522 171.605 194.049 170.784C194.587 169.963 194.855 168.907 194.855 167.616C194.855 166.347 194.559 165.355 193.967 164.64C193.374 163.925 192.321 163.568 190.807 163.568C189.414 163.568 188.361 163.957 187.648 164.736C186.946 165.504 186.594 166.768 186.594 168.528H184.62C184.62 166.171 185.141 164.533 186.183 163.616C187.236 162.699 188.767 162.24 190.774 162.24C193.012 162.24 194.587 162.683 195.497 163.568C196.408 164.443 196.863 165.739 196.863 167.456C196.863 169.056 196.545 170.336 195.908 171.296C195.272 172.256 194.614 173.072 193.934 173.744C193.133 174.533 192.519 175.445 192.091 176.48C191.663 177.504 191.449 178.661 191.449 179.952H189.458ZM189.491 181.68H191.432V184.08H189.491V181.68Z" fill="white"/>
</svg>
